HIERARCHY
ROOT hip
{
  OFFSET 0.00112043 5.09927 -9.65472
  CHANNELS 6 Xposition Yposition Zposition Zrotation Xrotation Yrotation
  JOINT abdomen
  {
    OFFSET 0 -1.186 -1.5018
    CHANNELS 3 Zrotation Xrotation Yrotation
    JOINT abdomen2
    {
      OFFSET 0 9.964 0.2134
      CHANNELS 3 Zrotation Xrotation Yrotation
      JOINT chest
      {
        OFFSET 0 13.134 -3.2573
        CHANNELS 3 Zrotation Xrotation Yrotation
        JOINT neck
        {
          OFFSET 0 20.686 -1.6905
          CHANNELS 3 Zrotation Xrotation Yrotation
          JOINT head
          {
            OFFSET 0 7.238 -0.1237
            CHANNELS 3 Zrotation Xrotation Yrotation
            End Site
            {
              OFFSET 0 0 0
            }
          }
        }
        JOINT lCollar
        {
          OFFSET 1.7069 20.075 5.0056
          CHANNELS 3 Zrotation Xrotation Yrotation
          JOINT lShldr
          {
            OFFSET 13.6458 -0.047 -4.849
            CHANNELS 3 Zrotation Xrotation Yrotation
            JOINT lForeArm
            {
              OFFSET 28.3255 -0.9759 2.2888
              CHANNELS 3 Zrotation Xrotation Yrotation
              JOINT lHand
              {
                OFFSET 22.1583 -0.53 10.8316
                CHANNELS 3 Zrotation Xrotation Yrotation
                JOINT lThumb1
                {
                  OFFSET 0.786 0.112 2.5817
                  CHANNELS 3 Zrotation Xrotation Yrotation
                  JOINT lThumb2
                  {
                    OFFSET 0.3601 -0.878 4.2331
                    CHANNELS 3 Zrotation Xrotation Yrotation
                    JOINT lThumb2_End
                    {
                      OFFSET 1.8127 -1.216 2.2227
                      CHANNELS 3 Zrotation Xrotation Yrotation
                      End Site
                      {
                        OFFSET 0.0181 -0.0122 0.0222
                      }
                    }
                  }
                }
                JOINT lCarpal1
                {
                  OFFSET 0.9571 1.114 1.7695
                  CHANNELS 3 Zrotation Xrotation Yrotation
                  JOINT lIndex1
                  {
                    OFFSET 4.1246 0.487 4.1451
                    CHANNELS 3 Zrotation Xrotation Yrotation
                    JOINT lIndex2
                    {
                      OFFSET 3.4052 -1.454 2.7682
                      CHANNELS 3 Zrotation Xrotation Yrotation
                      JOINT lIndex2_End
                      {
                        OFFSET 1.4531 -1.795 1.2713
                        CHANNELS 3 Zrotation Xrotation Yrotation
                        End Site
                        {
                          OFFSET 0.0145 -0.0179 0.0127
                        }
                      }
                    }
                  }
                  JOINT lMid1
                  {
                    OFFSET 5.6954 0.21 2.1184
                    CHANNELS 3 Zrotation Xrotation Yrotation
                    JOINT lMid2
                    {
                      OFFSET 3.9766 -1.54 2.3863
                      CHANNELS 3 Zrotation Xrotation Yrotation
                      JOINT lMid2_End
                      {
                        OFFSET 1.4042 -1.926 1.125
                        CHANNELS 3 Zrotation Xrotation Yrotation
                        End Site
                        {
                          OFFSET 0.014 -0.0193 0.0113
                        }
                      }
                    }
                  }
                }
                JOINT lCarpal2
                {
                  OFFSET 2.0956 0.66 -0.3894
                  CHANNELS 3 Zrotation Xrotation Yrotation
                  JOINT lRing1
                  {
                    OFFSET 5.0395 -0.09 2.4971
                    CHANNELS 3 Zrotation Xrotation Yrotation
                    JOINT lRing2
                    {
                      OFFSET 3.7921 -1.552 1.4806
                      CHANNELS 3 Zrotation Xrotation Yrotation
                      JOINT lRing2_End
                      {
                        OFFSET 1.4655 -1.808 0.9609
                        CHANNELS 3 Zrotation Xrotation Yrotation
                        End Site
                        {
                          OFFSET 0.0147 -0.0181 0.0096
                        }
                      }
                    }
                  }
                  JOINT lPinky1
                  {
                    OFFSET 4.9141 -1.269 0.3591
                    CHANNELS 3 Zrotation Xrotation Yrotation
                    JOINT lPinky2
                    {
                      OFFSET 3.1477 -1.685 0.8462
                      CHANNELS 3 Zrotation Xrotation Yrotation
                      JOINT lPinky2_End
                      {
                        OFFSET 0.8055 -1.585 0.7955
                        CHANNELS 3 Zrotation Xrotation Yrotation
                        End Site
                        {
                          OFFSET 0.0081 -0.0158 0.008
                        }
                      }
                    }
                  }
                }
              }
            }
          }
        }
        JOINT rCollar
        {
          OFFSET -1.7069 20.075 5.0056
          CHANNELS 3 Zrotation Xrotation Yrotation
          JOINT rShldr
          {
            OFFSET -13.6458 -0.047 -4.849
            CHANNELS 3 Zrotation Xrotation Yrotation
            JOINT rForeArm
            {
              OFFSET -28.3255 -0.9759 2.2888
              CHANNELS 3 Zrotation Xrotation Yrotation
              JOINT rHand
              {
                OFFSET -22.1583 -0.53 10.8316
                CHANNELS 3 Zrotation Xrotation Yrotation
                JOINT rThumb1
                {
                  OFFSET -0.786 0.112 2.5817
                  CHANNELS 3 Zrotation Xrotation Yrotation
                  JOINT rThumb2
                  {
                    OFFSET -0.3601 -0.878 4.2331
                    CHANNELS 3 Zrotation Xrotation Yrotation
                    JOINT rThumb2_End
                    {
                      OFFSET -1.8127 -1.216 2.2227
                      CHANNELS 3 Zrotation Xrotation Yrotation
                      End Site
                      {
                        OFFSET -0.0181 -0.0122 0.0222
                      }
                    }
                  }
                }
                JOINT rCarpal1
                {
                  OFFSET -0.9571 1.114 1.7695
                  CHANNELS 3 Zrotation Xrotation Yrotation
                  JOINT rIndex1
                  {
                    OFFSET -4.1246 0.487 4.1451
                    CHANNELS 3 Zrotation Xrotation Yrotation
                    JOINT rIndex2
                    {
                      OFFSET -3.4052 -1.454 2.7682
                      CHANNELS 3 Zrotation Xrotation Yrotation
                      JOINT rIndex2_End
                      {
                        OFFSET -1.4531 -1.795 1.2713
                        CHANNELS 3 Zrotation Xrotation Yrotation
                        End Site
                        {
                          OFFSET -0.0145 -0.018 0.0127
                        }
                      }
                    }
                  }
                  JOINT rMid1
                  {
                    OFFSET -5.6954 0.21 2.1184
                    CHANNELS 3 Zrotation Xrotation Yrotation
                    JOINT rMid2
                    {
                      OFFSET -3.9766 -1.54 2.3863
                      CHANNELS 3 Zrotation Xrotation Yrotation
                      JOINT rMid2_End
                      {
                        OFFSET -1.4042 -1.926 1.125
                        CHANNELS 3 Zrotation Xrotation Yrotation
                        End Site
                        {
                          OFFSET -0.014 -0.0193 0.0113
                        }
                      }
                    }
                  }
                }
                JOINT rCarpal2
                {
                  OFFSET -2.0956 0.66 -0.3894
                  CHANNELS 3 Zrotation Xrotation Yrotation
                  JOINT rRing1
                  {
                    OFFSET -5.0395 -0.09 2.4971
                    CHANNELS 3 Zrotation Xrotation Yrotation
                    JOINT rRing2
                    {
                      OFFSET -3.7921 -1.552 1.4806
                      CHANNELS 3 Zrotation Xrotation Yrotation
                      JOINT rRing2_End
                      {
                        OFFSET -1.4655 -1.808 0.9609
                        CHANNELS 3 Zrotation Xrotation Yrotation
                        End Site
                        {
                          OFFSET -0.0147 -0.0181 0.0096
                        }
                      }
                    }
                  }
                  JOINT rPinky1
                  {
                    OFFSET -4.9141 -1.269 0.3592
                    CHANNELS 3 Zrotation Xrotation Yrotation
                    JOINT rPinky2
                    {
                      OFFSET -3.1477 -1.685 0.8462
                      CHANNELS 3 Zrotation Xrotation Yrotation
                      JOINT rPinky2_End
                      {
                        OFFSET -0.8055 -1.585 0.7955
                        CHANNELS 3 Zrotation Xrotation Yrotation
                        End Site
                        {
                          OFFSET -0.0081 -0.0158 0.008
                        }
                      }
                    }
                  }
                }
              }
            }
          }
        }
      }
    }
  }
  JOINT lThigh
  {
    OFFSET 8.367 -8.2066 0.5982
    CHANNELS 3 Zrotation Xrotation Yrotation
    JOINT lShin
    {
      OFFSET 2.1923 -43.463 -0.4932
      CHANNELS 3 Zrotation Xrotation Yrotation
      JOINT lFoot
      {
        OFFSET 0.7333 -45.8593 -2.6451
        CHANNELS 3 Zrotation Xrotation Yrotation
        End Site
        {
          OFFSET 2.6618 -4.2699 12.3931
        }
      }
    }
  }
  JOINT rThigh
  {
    OFFSET -8.367 -8.2066 0.5982
    CHANNELS 3 Zrotation Xrotation Yrotation
    JOINT rShin
    {
      OFFSET -2.1923 -43.463 -0.4931
      CHANNELS 3 Zrotation Xrotation Yrotation
      JOINT rFoot
      {
        OFFSET -0.7333 -45.8593 -2.6451
        CHANNELS 3 Zrotation Xrotation Yrotation
        End Site
        {
          OFFSET -2.6618 -4.2699 12.3931
        }
      }
    }
  }
}
MOTION
Frames:	6
Frame Time:	0.0333333
0 91.7903 2.51682 0 0 -0 0 0 -0 0 0 -0 0 0 -0 0 0 -0 0 0 -0 0 0 -0 1.66051 0.0835086 5.75766 -0.0175111 0.895433 15.7816 7.95139e-016 -1.98785e-016 -0 5.46658e-016 -3.97569e-016 -0 5.96354e-016 0 -0 3.97569e-016 1.98785e-016 9.54166e-015 1.49089e-016 -3.97569e-016 -0 6.4605e-016 0 3.18055e-015 5.96354e-016 0 3.18055e-015 8.94531e-016 -1.98785e-016 6.36111e-015 6.4605e-016 0 3.18055e-015 5.96354e-016 0 3.18055e-015 8.94531e-016 -1.98785e-016 6.36111e-015 1.49089e-016 -3.97569e-016 -0 6.4605e-016 0 3.18055e-015 5.96354e-016 0 3.18055e-015 8.94531e-016 -1.98785e-016 6.36111e-015 6.4605e-016 0 3.18055e-015 5.96354e-016 0 3.18055e-015 8.94531e-016 -1.98785e-016 6.36111e-015 0 0 -0 -1.4496 0.0636048 -5.0245 -1.74811 1.20616 -16.8394 -1.19271e-015 1.98785e-016 -3.18055e-015 -3.97569e-016 1.98785e-016 -3.18055e-015 -2.98177e-016 1.98785e-016 -3.18055e-015 -2.98177e-016 3.97569e-016 -0 4.96962e-016 0 -6.36111e-015 -9.93923e-017 3.97569e-016 -0 -8.94531e-016 5.96354e-016 -0 -3.97569e-016 3.97569e-016 -0 -9.93923e-017 3.97569e-016 -0 -8.94531e-016 5.96354e-016 -0 -3.97569e-016 3.97569e-016 -0 4.96962e-016 0 -6.36111e-015 -9.93923e-017 3.97569e-016 -0 -8.94531e-016 5.96354e-016 -0 -3.97569e-016 3.97569e-016 -0 -9.93923e-017 3.97569e-016 -0 -8.94531e-016 5.96354e-016 -0 -3.97569e-016 3.97569e-016 -0 -4.66111 -0.998717 0.12318 0.00986924 1.54847 0.176523 4.65186 -0.572283 -0.254274 4.66111 -0.998765 -0.123176 -0.00986867 1.54869 -0.176537 -4.65186 -0.572453 0.25427 
-1.87621 90.3021 20.0068 -1.68792 -1.59183 133.31 -0.368718 1.37736 -0.187487 -0.733252 2.75589 -0.366039 -0.733251 2.75589 -0.366041 0.122156 0.192333 -0.00959225 0.0512798 0.0620286 0.0135705 -11.1 -13.7889 -15.6651 -7.8662 -17.4792 -32.9835 -25.194 22.136 -31.5884 -20.6677 -6.4846 12.016 0 0 -4.77083e-015 0 0 -3.18055e-015 -0 0 3.18055e-015 2.64834e-031 3.18055e-015 -4.77083e-015 3.18055e-015 9.54166e-015 9.54166e-015 -1.76556e-031 -6.36111e-015 -1.59028e-015 -0 0 1.59028e-015 3.18055e-015 9.54166e-015 9.54166e-015 -1.76556e-031 -6.36111e-015 -1.59028e-015 -0 0 1.59028e-015 2.64834e-031 3.18055e-015 -4.77083e-015 3.18055e-015 9.54166e-015 9.54166e-015 -1.76556e-031 -6.36111e-015 -1.59028e-015 -0 0 1.59028e-015 3.18055e-015 9.54166e-015 9.54166e-015 -1.76556e-031 -6.36111e-015 -1.59028e-015 -0 0 1.59028e-015 1.27584 0.122225 -0.497701 49.5621 5.13902 16.4555 13.9481 6.05011 0.697194 -1.81656 0.809412 3.16426 2.38542e-015 3.18055e-015 4.77083e-015 2.0534e-007 8.68775e-007 1.4198e-006 -3.97569e-015 3.18055e-015 -0 7.95139e-016 3.18055e-015 3.18055e-015 -1.59028e-015 -3.18055e-015 7.95139e-015 2.0534e-007 8.68775e-007 1.4198e-006 -2.38542e-015 3.18055e-015 4.77083e-015 -1.59028e-015 -3.18055e-015 7.95139e-015 2.0534e-007 8.68775e-007 1.4198e-006 -2.38542e-015 3.18055e-015 4.77083e-015 7.95139e-016 3.18055e-015 3.18055e-015 -1.59028e-015 -3.18055e-015 7.95139e-015 2.0534e-007 8.68775e-007 1.4198e-006 -2.38542e-015 3.18055e-015 4.77083e-015 -1.59028e-015 -3.18055e-015 7.95139e-015 2.0534e-007 8.68775e-007 1.4198e-006 -2.38542e-015 3.18055e-015 4.77083e-015 -4.52962 -17.7339 0.175676 -1.81037 26.3575 2.04511 9.9896 -2.48296 0.283307 174.393 -52.9806 173.306 1.98593 25.5494 -2.1112 -8.62057 -8.17388 -0.246115 
0.437013 87.9623 30.2886 0.664239 -2.80035 -166.65 -0.526499 2.11057 -0.279788 -1.04374 4.22361 -0.540613 -1.04374 4.2236 -0.540623 0.232859 0.320692 -0.0254487 0.0962583 0.109901 -0.0477355 -18.6116 -19.2621 -23.6101 -18.878 -18.6105 -51.8498 -29.8756 19.1425 -52.6975 -28.0951 -9.76533 18.0048 -4.01822e-006 8.90441e-007 -4.563e-006 3.15105e-006 4.0572e-007 7.31797e-006 -3.36321e-006 4.59996e-007 -4.90152e-006 -1.32417e-031 1.59028e-015 4.77083e-015 -4.01822e-006 8.90441e-007 -4.563e-006 3.15105e-006 4.0572e-007 7.31797e-006 -3.36321e-006 4.59996e-007 -4.90152e-006 -4.01822e-006 8.90441e-007 -4.563e-006 3.15105e-006 4.0572e-007 7.31797e-006 -3.36321e-006 4.59996e-007 -4.90152e-006 -1.32417e-031 1.59028e-015 4.77083e-015 -4.01822e-006 8.90441e-007 -4.563e-006 3.15105e-006 4.0572e-007 7.31797e-006 -3.36321e-006 4.59996e-007 -4.90152e-006 -4.01822e-006 8.90441e-007 -4.563e-006 3.15105e-006 4.0572e-007 7.31797e-006 -3.36321e-006 4.59996e-007 -4.90152e-006 1.85132 -0.00865761 -0.66893 71.2585 6.79323 26.2331 20.2345 7.75653 8.47364 -2.5985 1.12531 4.52661 -4.8434e-006 4.14824e-006 2.28087e-006 2.90255e-007 5.39783e-007 -5.91496e-007 -2.34879e-007 2.36598e-006 2.15913e-006 1.59028e-015 -3.18055e-015 -3.18055e-015 -4.8434e-006 4.14824e-006 2.28087e-006 2.90255e-007 5.39783e-007 -5.91496e-007 -2.34879e-007 2.36598e-006 2.15913e-006 -4.8434e-006 4.14824e-006 2.28087e-006 2.90255e-007 5.39783e-007 -5.91496e-007 -2.34879e-007 2.36598e-006 2.15913e-006 1.59028e-015 -3.18055e-015 -3.18055e-015 -4.8434e-006 4.14824e-006 2.28087e-006 2.90255e-007 5.39783e-007 -5.91496e-007 -2.34879e-007 2.36598e-006 2.15913e-006 -4.8434e-006 4.14824e-006 2.28087e-006 2.90255e-007 5.39783e-007 -5.91496e-007 -2.34879e-007 2.36598e-006 2.15913e-006 -5.35469 -24.891 0.43367 -3.20495 39.9004 3.98183 13.3777 -5.59655 0.83783 178.75 5.87239 179.373 3.36944 39.9621 -3.60857 -9.64882 -12.2218 -0.771587 
0.208823 88.6445 28.2261 -7.22175e-015 -1.67381 180 -0.491918 2.2004 -0.255692 -0.975077 4.40291 -0.493 -0.975077 4.40291 -0.493 0.331953 0.385062 -0.0474393 0.135062 0.1436 -0.18397 -16.7264 -18.3652 -22.2256 -16.2634 -18.8752 -47.6836 -28.6289 20.3157 -47.8499 -26.7845 -8.89675 16.2965 -6.65764e-007 4.11152e-007 3.37533e-007 -2.55943e-006 8.59516e-007 -2.82251e-006 -6.65764e-007 4.11152e-007 3.37533e-007 -7.94503e-031 9.54166e-015 4.77083e-015 -6.65764e-007 4.11152e-007 3.37533e-007 -2.55943e-006 8.59516e-007 -2.82251e-006 -6.65764e-007 4.11152e-007 3.37533e-007 -6.65764e-007 4.11152e-007 3.37533e-007 -2.55943e-006 8.59516e-007 -2.82251e-006 -6.65764e-007 4.11152e-007 3.37533e-007 -7.94503e-031 9.54166e-015 4.77083e-015 -6.65764e-007 4.11152e-007 3.37533e-007 -2.55943e-006 8.59516e-007 -2.82251e-006 -6.65764e-007 4.11152e-007 3.37533e-007 -6.65764e-007 4.11152e-007 3.37533e-007 -2.55943e-006 8.59516e-007 -2.82251e-006 -6.65764e-007 4.11152e-007 3.37533e-007 1.72623 -0.392585 -0.513746 66.4961 6.47667 24.0537 18.7331 7.33965 6.58133 -2.23813 1.00253 4.09228 -2.08306e-007 -6.04993e-007 5.65054e-007 -6.24918e-007 -1.81498e-006 1.69516e-006 -2.08306e-007 -6.04993e-007 5.65054e-007 -0 -3.18055e-015 -0 -2.08306e-007 -6.04993e-007 5.65054e-007 -6.24918e-007 -1.81498e-006 1.69516e-006 -2.08306e-007 -6.04993e-007 5.65054e-007 -2.08306e-007 -6.04993e-007 5.65054e-007 -6.24918e-007 -1.81498e-006 1.69516e-006 -2.08306e-007 -6.04993e-007 5.65054e-007 -0 -3.18055e-015 -0 -2.08306e-007 -6.04993e-007 5.65054e-007 -6.24918e-007 -1.81498e-006 1.69516e-006 -2.08306e-007 -6.04993e-007 5.65054e-007 -2.08306e-007 -6.04993e-007 5.65054e-007 -6.24918e-007 -1.81498e-006 1.69516e-006 -2.08306e-007 -6.04993e-007 5.65054e-007 -4.68251 -22.162 0.425065 -3.00759 36.7193 3.46297 12.2724 -4.56058 0.646428 177.965 -7.92769 178.26 2.75023 37.6785 -3.24257 -9.66727 -11.8709 -0.716944 
0.201805 88.7111 28.1829 -7.11332e-015 -0.788849 180 -0.491878 2.40736 -0.253264 -0.974386 4.81678 -0.486458 -0.974385 4.81678 -0.486457 0.433233 0.461203 -0.0684756 0.175091 0.17979 -0.306659 -16.6691 -18.5654 -22.5835 -16.2604 -18.8773 -47.67 -28.5341 20.1165 -47.4374 -26.9699 -8.79145 16.0206 -1.10147e-006 -2.89655e-006 2.81495e-007 -2.02958e-006 9.36858e-009 -5.66819e-006 7.92224e-007 -5.9007e-007 -1.16543e-006 -3.18055e-015 1.59028e-015 6.36111e-015 -1.10147e-006 -2.89655e-006 2.81495e-007 -2.02958e-006 9.36858e-009 -5.66819e-006 7.92224e-007 -5.9007e-007 -1.16543e-006 -1.10147e-006 -2.89655e-006 2.81495e-007 -2.02958e-006 9.36858e-009 -5.66819e-006 7.92224e-007 -5.9007e-007 -1.16543e-006 -3.18055e-015 1.59028e-015 6.36111e-015 -1.10147e-006 -2.89655e-006 2.81495e-007 -2.02958e-006 9.36858e-009 -5.66819e-006 7.92224e-007 -5.9007e-007 -1.16543e-006 -1.10147e-006 -2.89655e-006 2.81495e-007 -2.02958e-006 9.36858e-009 -5.66819e-006 7.92224e-007 -5.9007e-007 -1.16543e-006 1.72901 -0.730497 -0.417875 66.4961 6.47667 24.0537 18.6209 7.28314 6.44594 -2.08726 0.958152 3.98469 2.07887e-007 6.0508e-007 -5.65108e-007 4.15774e-007 1.21016e-006 -1.13022e-006 -1.59028e-015 -3.18055e-015 -3.18055e-015 7.95139e-016 0 -0 2.07887e-007 6.0508e-007 -5.65108e-007 4.15774e-007 1.21016e-006 -1.13022e-006 -1.59028e-015 -3.18055e-015 3.18055e-015 2.07887e-007 6.0508e-007 -5.65108e-007 4.15774e-007 1.21016e-006 -1.13022e-006 -1.59028e-015 -3.18055e-015 3.18055e-015 7.95139e-016 0 -0 2.07887e-007 6.0508e-007 -5.65108e-007 4.15774e-007 1.21016e-006 -1.13022e-006 -1.59028e-015 -3.18055e-015 3.18055e-015 2.07887e-007 6.0508e-007 -5.65108e-007 4.15774e-007 1.21016e-006 -1.13022e-006 -1.59028e-015 -3.18055e-015 3.18055e-015 -4.6039 -21.0125 0.484131 -3.12927 36.4061 3.51415 12.2995 -4.33971 0.607859 177.895 -8.44176 178.169 2.54611 38.3023 -3.15905 -9.57703 -12.1177 -0.750222 
0.19496 88.778 28.1398 -7.0048e-015 0.0972443 180 -0.491843 2.61445 -0.250833 -0.973732 5.23092 -0.479916 -0.973732 5.23092 -0.479916 0.53458 0.537309 -0.089648 0.215209 0.215904 -0.429411 -16.6131 -18.7661 -22.9418 -16.2573 -18.8795 -47.6564 -28.4379 19.918 -47.025 -27.1548 -8.68521 15.7451 -4.08348e-007 3.3924e-008 -1.30807e-006 1.07539e-006 -4.4379e-007 9.71607e-007 9.25727e-007 -7.85808e-007 -1.98098e-006 3.18055e-015 3.18055e-015 7.95139e-015 -4.08348e-007 3.3924e-008 -1.30807e-006 1.07539e-006 -4.4379e-007 9.71607e-007 9.25727e-007 -7.85808e-007 -1.98098e-006 -4.08348e-007 3.3924e-008 -1.30807e-006 1.07539e-006 -4.4379e-007 9.71607e-007 9.25727e-007 -7.85808e-007 -1.98098e-006 3.18055e-015 3.18055e-015 7.95139e-015 -4.08348e-007 3.3924e-008 -1.30807e-006 1.07539e-006 -4.4379e-007 9.71607e-007 9.25727e-007 -7.85808e-007 -1.98098e-006 -4.08348e-007 3.3924e-008 -1.30807e-006 1.07539e-006 -4.4379e-007 9.71607e-007 9.25727e-007 -7.85808e-007 -1.98098e-006 1.73238 -1.06853 -0.321949 66.4961 6.47667 24.0537 18.5085 7.22688 6.31045 -1.93653 0.913489 3.87719 -2.07468e-007 -6.05165e-007 5.65164e-007 -4.14936e-007 -1.21033e-006 1.13033e-006 -2.07468e-007 -6.05165e-007 5.65164e-007 7.95139e-016 6.36111e-015 -0 -2.07468e-007 -6.05165e-007 5.65164e-007 -4.14936e-007 -1.21033e-006 1.13033e-006 -2.07468e-007 -6.05165e-007 5.65164e-007 -2.07468e-007 -6.05165e-007 5.65164e-007 -4.14936e-007 -1.21033e-006 1.13033e-006 -2.07468e-007 -6.05165e-007 5.65164e-007 7.95139e-016 6.36111e-015 -0 -2.07468e-007 -6.05165e-007 5.65164e-007 -4.14936e-007 -1.21033e-006 1.13033e-006 -2.07468e-007 -6.05165e-007 5.65164e-007 -2.07468e-007 -6.05165e-007 5.65164e-007 -4.14936e-007 -1.21033e-006 1.13033e-006 -2.07468e-007 -6.05165e-007 5.65164e-007 -4.52703 -19.8621 0.540916 -3.25 36.0922 3.56412 12.3266 -4.11655 0.568979 177.841 -8.94555 178.085 2.38063 38.9387 -3.09152 -9.5034 -12.3664 -0.784106 
